<svg xmlns="http://www.w3.org/2000/svg" width="16" height="16.002" viewBox="0 0 16 16.002">
  <path id="home" d="M15.57,6.96h0L9.041.432a1.473,1.473,0,0,0-2.083,0L.434,6.955l-.007.007a1.472,1.472,0,0,0,.98,2.51l.045,0h.26v4.8A1.726,1.726,0,0,0,3.437,16H5.991a.469.469,0,0,0,.469-.469V11.767a.787.787,0,0,1,.787-.787H8.753a.787.787,0,0,1,.787.787v3.766a.469.469,0,0,0,.469.469h2.554a1.726,1.726,0,0,0,1.724-1.724v-4.8h.241A1.473,1.473,0,0,0,15.57,6.96Zm0,0" transform="translate(0.001)" fill="#a7a7a7"/>
</svg>
