<svg xmlns="http://www.w3.org/2000/svg" width="15.841" height="11.864" viewBox="0 0 15.841 11.864">
  <g id="email" transform="translate(0 0)">
    <path id="Path_77" data-name="Path 77" d="M9.244,175.8a2.383,2.383,0,0,1-2.648,0L.105,171.477Q.051,171.441,0,171.4v7.091a1.458,1.458,0,0,0,1.458,1.458H14.383a1.458,1.458,0,0,0,1.458-1.458V171.4c-.034.026-.07.051-.106.075Z" transform="translate(0 -168.087)" fill="#6f6f6f"/>
    <path id="Path_78" data-name="Path 78" d="M.62,66.883l6.491,4.328a1.455,1.455,0,0,0,1.618,0l6.491-4.328a1.39,1.39,0,0,0,.62-1.159,1.459,1.459,0,0,0-1.458-1.458H1.458A1.46,1.46,0,0,0,0,65.725a1.39,1.39,0,0,0,.62,1.159Z" transform="translate(0 -64.266)" fill="#6f6f6f"/>
  </g>
</svg>
