<svg id="download-circular-button" xmlns="http://www.w3.org/2000/svg" width="31.848" height="31.848" viewBox="0 0 31.848 31.848">
  <g id="_x37__43_">
    <g id="Group_7577" data-name="Group 7577">
      <path id="Path_28872" data-name="Path 28872" d="M21.02,15.39l-4.1,4.1V8.957a1,1,0,0,0-1.99,0V19.493l-4.1-4.1A1,1,0,1,0,9.42,16.8l5.63,5.63a.976.976,0,0,0,.875.258.979.979,0,0,0,.875-.258l5.63-5.63A1,1,0,0,0,21.02,15.39ZM15.924,0A15.924,15.924,0,1,0,31.848,15.924,15.924,15.924,0,0,0,15.924,0Zm0,29.857A13.933,13.933,0,1,1,29.857,15.924,13.933,13.933,0,0,1,15.924,29.857Z" fill="#8fc73e"/>
    </g>
  </g>
</svg>
