<svg xmlns="http://www.w3.org/2000/svg" width="24" height="24" viewBox="0 0 24 24">
  <g id="Group_16" data-name="Group 16" transform="translate(0 0)">
    <rect id="Rectangle_9" data-name="Rectangle 9" width="24" height="24" rx="12" transform="translate(0 0)" fill="#fff"/>
    <g id="sun" transform="translate(4.759 4.816)">
      <g id="Group_15" data-name="Group 15">
        <path id="Path_80" data-name="Path 80" d="M14.87,11.269a3.6,3.6,0,1,0,3.6,3.6A3.606,3.606,0,0,0,14.87,11.269Z" transform="translate(-7.59 -7.59)" fill="#8fc73e"/>
        <g id="Group_14" data-name="Group 14">
          <g id="Group_6" data-name="Group 6" transform="translate(6.56)">
            <path id="Path_81" data-name="Path 81" d="M21.093,2.593a.72.72,0,0,1-.72-.72V.72a.72.72,0,0,1,1.441,0V1.873A.721.721,0,0,1,21.093,2.593Z" transform="translate(-20.373)" fill="#8fc73e"/>
          </g>
          <g id="Group_7" data-name="Group 7" transform="translate(6.56 11.967)">
            <path id="Path_82" data-name="Path 82" d="M21.093,37.215a.72.72,0,0,0-.72.72v1.152a.72.72,0,1,0,1.441,0V37.935A.721.721,0,0,0,21.093,37.215Z" transform="translate(-20.373 -37.215)" fill="#8fc73e"/>
          </g>
          <g id="Group_8" data-name="Group 8" transform="translate(10.357 1.948)">
            <path id="Path_83" data-name="Path 83" d="M32.493,8.012a.721.721,0,0,1,0-1.019l.815-.815A.72.72,0,1,1,34.327,7.2l-.815.815A.72.72,0,0,1,32.493,8.012Z" transform="translate(-32.282 -5.967)" fill="#8fc73e"/>
          </g>
          <g id="Group_9" data-name="Group 9" transform="translate(1.948 10.357)">
            <path id="Path_84" data-name="Path 84" d="M8.012,32.494a.72.72,0,0,0-1.019,0l-.815.815A.72.72,0,0,0,7.2,34.328l.815-.815A.72.72,0,0,0,8.012,32.494Z" transform="translate(-5.967 -32.283)" fill="#8fc73e"/>
          </g>
          <g id="Group_10" data-name="Group 10" transform="translate(11.967 6.56)">
            <path id="Path_85" data-name="Path 85" d="M37.215,21.093a.72.72,0,0,1,.72-.72h1.153a.72.72,0,1,1,0,1.441H37.935A.72.72,0,0,1,37.215,21.093Z" transform="translate(-37.215 -20.373)" fill="#8fc73e"/>
          </g>
          <g id="Group_11" data-name="Group 11" transform="translate(0 6.56)">
            <path id="Path_86" data-name="Path 86" d="M2.593,21.093a.72.72,0,0,0-.72-.72H.72a.72.72,0,1,0,0,1.441H1.873A.72.72,0,0,0,2.593,21.093Z" transform="translate(0 -20.373)" fill="#8fc73e"/>
          </g>
          <g id="Group_12" data-name="Group 12" transform="translate(10.356 10.357)">
            <path id="Path_87" data-name="Path 87" d="M32.493,32.5a.721.721,0,0,1,1.019,0l.815.815a.72.72,0,1,1-1.019,1.019l-.815-.815A.72.72,0,0,1,32.493,32.5Z" transform="translate(-32.282 -32.284)" fill="#8fc73e"/>
          </g>
          <g id="Group_13" data-name="Group 13" transform="translate(1.948 1.948)">
            <path id="Path_88" data-name="Path 88" d="M8.012,8.012a.72.72,0,0,0,0-1.019L7.2,6.179A.72.72,0,0,0,6.178,7.2l.815.815A.72.72,0,0,0,8.012,8.012Z" transform="translate(-5.967 -5.968)" fill="#8fc73e"/>
          </g>
        </g>
      </g>
    </g>
  </g>
</svg>
