<svg id="Group_7401" data-name="Group 7401" xmlns="http://www.w3.org/2000/svg" xmlns:xlink="http://www.w3.org/1999/xlink" width="559.625" height="116.178" viewBox="0 0 559.625 116.178">
  <defs>
    <clipPath id="clip-path">
      <rect id="Rectangle_2379" data-name="Rectangle 2379" width="559.625" height="116.178" fill="none"/>
    </clipPath>
  </defs>
  <g id="Group_7400" data-name="Group 7400" clip-path="url(#clip-path)">
    <path id="Path_28823" data-name="Path 28823" d="M820.641,304.987h14.5c3.419,0,5.777.59,7.193,1.887,1.415,1.179,2,3.42,2,6.485v5.424h-8.254v-4.245a3.593,3.593,0,0,0-.708-2.594c-.472-.472-1.533-.708-3.066-.708h-3.066v26.53h-8.608Z" transform="translate(-701.889 -260.853)" fill="#8fc73e"/>
    <path id="Path_28824" data-name="Path 28824" d="M999.9,234.6h6.131V222.689h8.608V234.6h9.2v6.485h-9.2v13.206c0,2.476.472,4.127,1.3,5.07s2.24,1.415,4.363,1.415h3.537v6.485h-7.9c-3.184,0-5.66-.825-7.311-2.712a10.932,10.932,0,0,1-2.594-7.664V240.847H999.9Z" transform="translate(-855.211 -190.464)" fill="#8fc73e"/>
    <path id="Path_28825" data-name="Path 28825" d="M1229.371,337.069H1213.1c-4.834,0-8.254-.943-10.376-2.83s-3.184-4.952-3.184-9.2V304.29h8.608v20.045c0,2.24.354,3.655,1.179,4.363q1.06,1.061,4.6,1.061h6.957V304.172h8.608v32.9Z" transform="translate(-1025.958 -260.156)" fill="#8fc73e"/>
    <path id="Path_28826" data-name="Path 28826" d="M1452.727,330.928H1471a6.627,6.627,0,0,0,3.537-.708,2.754,2.754,0,0,0,1.061-2.476,2.821,2.821,0,0,0-1.179-2.476,6.476,6.476,0,0,0-3.537-.826h-7.428c-4.481,0-7.428-.707-8.962-2s-2.358-3.773-2.358-7.193q0-5.306,2.83-7.782c1.887-1.651,4.834-2.476,8.726-2.476h18.631v6.839h-15.329c-2.476,0-4.127.236-4.835.708a2.6,2.6,0,0,0-1.179,2.358,2.675,2.675,0,0,0,.944,2.24,5.351,5.351,0,0,0,3.066.708h7.9c3.537,0,6.367.825,8.254,2.476a9.156,9.156,0,0,1,2.83,7.193,10.871,10.871,0,0,1-2.476,7.428,8.149,8.149,0,0,1-6.485,2.83h-22.4v-6.839Z" transform="translate(-1242.003 -260.853)" fill="#8fc73e"/>
    <path id="Path_28827" data-name="Path 28827" d="M1912.918,230.011h-23.228c-2.476,0-4.363.472-5.542,1.415s-1.768,2.358-1.768,4.481a4.264,4.264,0,0,0,1.532,3.655c.944.825,2.476,1.179,4.481,1.179h12.381c5.188,0,8.843.943,10.966,2.948,2.122,1.887,3.3,5.188,3.3,9.669,0,4.6-1.3,8.018-3.773,10.141s-6.485,3.184-11.791,3.184h-25.115v-8.018h23.582c2.712,0,4.6-.354,5.659-1.179a4.653,4.653,0,0,0,1.651-3.891c0-1.887-.472-3.184-1.533-4.009-.943-.825-2.712-1.179-5.188-1.179h-11.084c-5.188,0-8.961-1.061-11.319-3.066s-3.538-5.306-3.538-9.787c0-4.717,1.3-8.254,3.774-10.376,2.476-2.24,6.485-3.3,11.909-3.3h24.644Z" transform="translate(-1601.615 -189.768)"/>
    <path id="Path_28828" data-name="Path 28828" d="M2228.421,318.589c0,5.188-1.532,9.315-4.716,12.381s-7.311,4.6-12.617,4.6-9.551-1.533-12.734-4.6-4.717-7.193-4.717-12.263c0-5.188,1.533-9.315,4.717-12.381s7.429-4.6,12.734-4.6,9.433,1.533,12.617,4.6c3.066,3.066,4.716,7.075,4.716,12.263m-25.7,0c0,3.066.707,5.542,2.24,7.311a7.454,7.454,0,0,0,6.131,2.594,7.61,7.61,0,0,0,6.132-2.594c1.533-1.769,2.24-4.127,2.24-7.311,0-3.066-.707-5.542-2.24-7.311a7.454,7.454,0,0,0-6.132-2.594,7.61,7.61,0,0,0-6.131,2.594c-1.533,1.769-2.24,4.245-2.24,7.311" transform="translate(-1876.203 -258.066)"/>
    <rect id="Rectangle_2377" data-name="Rectangle 2377" width="9.079" height="44.689" transform="translate(357.288 32.225)"/>
    <path id="Path_28829" data-name="Path 28829" d="M2611.447,337.069h-16.391c-4.834,0-8.253-.943-10.376-2.83s-3.184-4.952-3.184-9.2V304.29h8.607v20.045c0,2.24.354,3.655,1.179,4.363q1.062,1.061,4.6,1.061h6.957V304.172h8.608Z" transform="translate(-2207.938 -260.156)"/>
    <path id="Path_28830" data-name="Path 28830" d="M2819.429,234.6h6.132V222.689h8.607V234.6h9.2v6.485h-9.2v13.206c0,2.476.472,4.127,1.3,5.07s2.24,1.415,4.363,1.415h3.537v6.485h-7.9c-3.184,0-5.661-.825-7.311-2.712a10.937,10.937,0,0,1-2.593-7.664V240.847h-6.132Z" transform="translate(-2411.439 -190.464)"/>
    <path id="Path_28831" data-name="Path 28831" d="M3028.957,230.826h-9.079V222.69h9.079Zm0,36.553h-9.079V234.6h9.079Z" transform="translate(-2582.882 -190.465)"/>
    <path id="Path_28832" data-name="Path 28832" d="M3154.073,318.589c0,5.188-1.533,9.315-4.717,12.381s-7.311,4.6-12.616,4.6-9.551-1.533-12.736-4.6-4.715-7.193-4.715-12.263c0-5.188,1.533-9.315,4.715-12.381s7.431-4.6,12.736-4.6,9.432,1.533,12.616,4.6,4.717,7.075,4.717,12.263m-25.706,0c0,3.066.708,5.542,2.24,7.311a7.457,7.457,0,0,0,6.132,2.594,7.609,7.609,0,0,0,6.131-2.594c1.533-1.769,2.241-4.127,2.241-7.311,0-3.066-.708-5.542-2.241-7.311a7.453,7.453,0,0,0-6.131-2.594,7.613,7.613,0,0,0-6.132,2.594,11.5,11.5,0,0,0-2.24,7.311" transform="translate(-2667.906 -258.066)"/>
    <path id="Path_28833" data-name="Path 28833" d="M3396.332,304.987H3412.6c4.953,0,8.49.943,10.495,2.83q3.184,2.83,3.184,9.2v20.752h-8.608V318.075c0-2.476-.353-4.009-1.178-4.717q-1.062-1.061-4.6-1.061h-6.956v25.587h-8.608Z" transform="translate(-2904.86 -260.853)"/>
    <path id="Path_28834" data-name="Path 28834" d="M3647.89,330.928h18.275a6.634,6.634,0,0,0,3.539-.708,2.756,2.756,0,0,0,1.06-2.476,2.822,2.822,0,0,0-1.178-2.476,6.482,6.482,0,0,0-3.538-.826h-7.429c-4.48,0-7.428-.707-8.961-2-1.533-1.415-2.357-3.773-2.357-7.193q0-5.306,2.83-7.782c1.886-1.651,4.833-2.476,8.726-2.476h18.629v6.839h-15.328c-2.477,0-4.128.236-4.835.708a2.6,2.6,0,0,0-1.179,2.358,2.672,2.672,0,0,0,.944,2.24,5.347,5.347,0,0,0,3.065.708h7.9c3.538,0,6.368.825,8.255,2.476a9.158,9.158,0,0,1,2.829,7.193,10.867,10.867,0,0,1-2.476,7.428,8.149,8.149,0,0,1-6.485,2.83h-22.4v-6.839Z" transform="translate(-3119.512 -260.853)"/>
    <path id="Path_28835" data-name="Path 28835" d="M1181.4,634.18l10.259,23.464h-2.948l-2.948-6.957h-8.844l-2.947,6.957h-2.948Zm0,5.9-3.537,8.254h7.193Z" transform="translate(-1001.566 -542.41)"/>
    <path id="Path_28836" data-name="Path 28836" d="M1393.479,645.028a7.213,7.213,0,0,1,3.3,2.476,7,7,0,0,1-.943,8.608,7.949,7.949,0,0,1-9.669.472,7.437,7.437,0,0,1-2.476-3.891l2.476-1.179a5.489,5.489,0,0,0,1.651,3.066,3.827,3.827,0,0,0,2.83,1.061,4.548,4.548,0,0,0,3.3-1.179,4.087,4.087,0,0,0,1.3-3.066,3.81,3.81,0,0,0-.825-2.594,6.445,6.445,0,0,0-2.594-1.887l-2.712-1.179a6.642,6.642,0,0,1-3.3-2.476,5.729,5.729,0,0,1-1.061-3.537,5.106,5.106,0,0,1,1.769-4.009,6.58,6.58,0,0,1,4.6-1.533,7.118,7.118,0,0,1,3.537.825,6.334,6.334,0,0,1,2.359,2.594l-2.24,1.415a7.148,7.148,0,0,0-1.651-2,3.217,3.217,0,0,0-2.123-.59,3.377,3.377,0,0,0-2.476.943,3.473,3.473,0,0,0-.236,4.481,6.763,6.763,0,0,0,2.24,1.533Z" transform="translate(-1183.463 -542.41)"/>
    <path id="Path_28837" data-name="Path 28837" d="M1496.953,702.142a8.2,8.2,0,0,1,.59-2.948,7.588,7.588,0,0,1,4.127-4.127,7.661,7.661,0,0,1,5.9,0,7.587,7.587,0,0,1,4.127,4.127,7.66,7.66,0,0,1,0,5.9,7.587,7.587,0,0,1-4.127,4.127,7.662,7.662,0,0,1-5.9,0,7.588,7.588,0,0,1-4.127-4.127,6.293,6.293,0,0,1-.59-2.948m2.476,0a4.98,4.98,0,0,0,1.533,3.773,4.729,4.729,0,0,0,3.655,1.533,4.483,4.483,0,0,0,3.538-1.533,5.453,5.453,0,0,0,1.533-3.773,4.982,4.982,0,0,0-1.533-3.773,4.653,4.653,0,0,0-3.538-1.533,4.9,4.9,0,0,0-3.655,1.533,5.68,5.68,0,0,0-1.533,3.773" transform="translate(-1280.333 -593.982)"/>
    <path id="Path_28838" data-name="Path 28838" d="M1617,653.463V641.318h-2.712v-2H1617v-4.127c0-2.358.353-3.891.943-4.717s1.651-1.179,3.184-1.179a3.259,3.259,0,0,1,1.061.118,2.222,2.222,0,0,1,.943.236v2.476c-.354-.118-.59-.353-.943-.353a2.591,2.591,0,0,0-.943-.118,1.426,1.426,0,0,0-1.415.707,9.146,9.146,0,0,0-.354,3.3v3.773h3.773v2H1619.6v12.145H1617Z" transform="translate(-1380.691 -538.228)"/>
    <path id="Path_28839" data-name="Path 28839" d="M1678.81,667.1h-2.594v-2h2.594v-5.66h2.476v5.66h2.594v2h-2.594V679.25h-2.476Z" transform="translate(-1433.656 -564.015)"/>
    <path id="Path_28840" data-name="Path 28840" d="M1742.591,695.293l4.245,10.14,3.773-9.551h2.711l-6.249,14.975-4.6-10.848-4.6,10.848-6.25-14.975h2.712l3.773,9.551,4.245-10.14Z" transform="translate(-1481.048 -594.679)"/>
    <path id="Path_28841" data-name="Path 28841" d="M1906.3,695.765V709.8h-2.358V707.32a6.918,6.918,0,0,1-2.122,2.358,5.066,5.066,0,0,1-2.948.826,6.012,6.012,0,0,1-4.834-2.123,9.317,9.317,0,0,1-.118-11.084,5.925,5.925,0,0,1,4.834-2,5.2,5.2,0,0,1,3.066.826,5.974,5.974,0,0,1,2.122,2.358v-2.594h2.358Zm-2.358,7.193a6.185,6.185,0,0,0-1.3-3.891,4.361,4.361,0,0,0-3.419-1.415,4.717,4.717,0,0,0-3.419,1.3,5.37,5.37,0,0,0-1.179,3.773,5.5,5.5,0,0,0,1.179,3.891,4.361,4.361,0,0,0,3.419,1.415,4.718,4.718,0,0,0,3.419-1.3,5.414,5.414,0,0,0,1.3-3.773" transform="translate(-1618.341 -594.679)"/>
    <path id="Path_28842" data-name="Path 28842" d="M2023.336,710.61V696.579h2.123v2.948a6.824,6.824,0,0,1,2-2.594,4.922,4.922,0,0,1,2.711-.826,2.009,2.009,0,0,1,.826.118c.236.118.589.118.825.236l-.825,2.123c-.236-.118-.59-.118-.826-.236-.235,0-.471-.118-.708-.118a3.087,3.087,0,0,0-2.829,1.415,7.911,7.911,0,0,0-.943,4.127v6.839Z" transform="translate(-1730.546 -595.375)"/>
    <path id="Path_28843" data-name="Path 28843" d="M2105.459,702.5h-11.2v.236a5.313,5.313,0,0,0,1.3,3.655,4.362,4.362,0,0,0,3.419,1.415,5.045,5.045,0,0,0,2.594-.707,6.806,6.806,0,0,0,2-2.358l1.886,1.179a6.989,6.989,0,0,1-2.711,2.83,6.667,6.667,0,0,1-3.773.943,6.756,6.756,0,0,1-5.188-2.122,7.981,7.981,0,0,1-2-5.542,7.683,7.683,0,0,1,2-5.424,6.5,6.5,0,0,1,5.07-2.123,6.393,6.393,0,0,1,4.953,2,7.908,7.908,0,0,1,1.768,5.424v.589Zm-2.594-2a3.788,3.788,0,0,0-1.3-2.83,4.212,4.212,0,0,0-3.066-1.061,4.308,4.308,0,0,0-2.947,1.061,4,4,0,0,0-1.3,2.83Z" transform="translate(-1789.087 -593.983)"/>
    <path id="Path_28844" data-name="Path 28844" d="M2277.564,662.523V639.884h5.306a20.039,20.039,0,0,1,3.3.236,5.416,5.416,0,0,1,1.886.825,4.156,4.156,0,0,1,1.533,2.123,7.719,7.719,0,0,1,.59,2.948,5.362,5.362,0,0,1-1.532,4.245,6.589,6.589,0,0,1-4.481,1.415h-.472l8.607,10.73h-3.419l-8.254-10.73h-.354v10.73h-2.712Zm2.594-20.281v7.546h2c2.122,0,3.537-.236,4.245-.825a3.481,3.481,0,0,0,1.061-2.83,3.858,3.858,0,0,0-1.061-3.066c-.708-.589-2.123-.826-4.127-.826Z" transform="translate(-1947.985 -547.288)"/>
    <path id="Path_28845" data-name="Path 28845" d="M2398.8,702.5h-11.2v.236a5.313,5.313,0,0,0,1.3,3.655,4.36,4.36,0,0,0,3.42,1.415,5.048,5.048,0,0,0,2.594-.707,6.8,6.8,0,0,0,2-2.358l1.887,1.179a7,7,0,0,1-2.712,2.83,6.668,6.668,0,0,1-3.773.943,6.756,6.756,0,0,1-5.188-2.122,7.982,7.982,0,0,1-2-5.542,7.684,7.684,0,0,1,2-5.424,6.5,6.5,0,0,1,5.07-2.123,6.392,6.392,0,0,1,4.953,2,7.908,7.908,0,0,1,1.768,5.424v.589Zm-2.595-2a3.788,3.788,0,0,0-1.3-2.83,4.212,4.212,0,0,0-3.066-1.061,4.307,4.307,0,0,0-2.948,1.061,4,4,0,0,0-1.3,2.83Z" transform="translate(-2039.979 -593.983)"/>
    <path id="Path_28846" data-name="Path 28846" d="M2495.563,713.527l-6.957-14.975h2.712l4.245,9.787,4.245-9.787h2.712Z" transform="translate(-2128.489 -597.467)"/>
    <path id="Path_28847" data-name="Path 28847" d="M2594.535,702.142a8.215,8.215,0,0,1,.589-2.948,7.593,7.593,0,0,1,4.127-4.127,7.662,7.662,0,0,1,5.9,0,7.585,7.585,0,0,1,4.127,4.127,7.66,7.66,0,0,1,0,5.9,7.585,7.585,0,0,1-4.127,4.127,7.664,7.664,0,0,1-5.9,0,7.593,7.593,0,0,1-4.127-4.127,6.287,6.287,0,0,1-.589-2.948m2.594,0a4.981,4.981,0,0,0,1.533,3.773,4.728,4.728,0,0,0,3.655,1.533,4.485,4.485,0,0,0,3.538-1.533,5.453,5.453,0,0,0,1.533-3.773,4.98,4.98,0,0,0-1.533-3.773,4.485,4.485,0,0,0-3.538-1.533,4.9,4.9,0,0,0-3.655,1.533,5.163,5.163,0,0,0-1.533,3.773" transform="translate(-2219.088 -593.982)"/>
    <rect id="Rectangle_2378" data-name="Rectangle 2378" width="2.476" height="23.818" transform="translate(394.666 91.416)"/>
    <path id="Path_28848" data-name="Path 28848" d="M2780.35,698.552v6.957a7.508,7.508,0,0,0,.943,4.245,4.574,4.574,0,0,0,6.131,0c.59-.825.825-2.24.825-4.245v-6.957h2.477v8.254a5.8,5.8,0,0,1-6.485,6.485,6.358,6.358,0,0,1-4.717-1.65,6.657,6.657,0,0,1-1.65-4.834v-8.254Z" transform="translate(-2375.897 -597.467)"/>
    <path id="Path_28849" data-name="Path 28849" d="M2885.579,667.1h-2.594v-2h2.594v-5.66h2.476v5.66h2.594v2h-2.594V679.25h-2.476Z" transform="translate(-2465.798 -564.015)"/>
    <path id="Path_28850" data-name="Path 28850" d="M2951.432,640.838a1.775,1.775,0,0,1,.471-1.3,1.611,1.611,0,0,1,1.3-.472,1.632,1.632,0,0,1,1.769,1.769,1.366,1.366,0,0,1-.472,1.179,1.609,1.609,0,0,1-1.3.472,1.775,1.775,0,0,1-1.3-.472,1.573,1.573,0,0,1-.471-1.179m.589,6.957h2.476v14.031h-2.476Z" transform="translate(-2524.34 -546.591)"/>
    <path id="Path_28851" data-name="Path 28851" d="M2999.508,702.142a8.225,8.225,0,0,1,.589-2.948,7.585,7.585,0,0,1,4.127-4.127,7.662,7.662,0,0,1,5.9,0,7.582,7.582,0,0,1,4.126,4.127,7.666,7.666,0,0,1,0,5.9,7.582,7.582,0,0,1-4.126,4.127,7.664,7.664,0,0,1-5.9,0,7.585,7.585,0,0,1-4.127-4.127,8.224,8.224,0,0,1-.589-2.948m2.593,0a4.983,4.983,0,0,0,1.533,3.773,4.729,4.729,0,0,0,3.655,1.533,4.484,4.484,0,0,0,3.537-1.533,5.454,5.454,0,0,0,1.534-3.773,4.981,4.981,0,0,0-1.534-3.773,4.484,4.484,0,0,0-3.537-1.533,4.905,4.905,0,0,0-3.655,1.533,5.165,5.165,0,0,0-1.533,3.773" transform="translate(-2565.459 -593.982)"/>
    <path id="Path_28852" data-name="Path 28852" d="M3131.51,709.913V695.882h2.358V698a5.235,5.235,0,0,1,2.241-2,6.058,6.058,0,0,1,2.948-.708,5.725,5.725,0,0,1,3.89,1.3,4.707,4.707,0,0,1,1.416,3.655V709.8h-2.477v-8.254a4.881,4.881,0,0,0-.942-3.184,3.484,3.484,0,0,0-2.831-1.061,5.51,5.51,0,0,0-2,.354,3.211,3.211,0,0,0-1.414,1.061,2.606,2.606,0,0,0-.59,1.3,10.709,10.709,0,0,0-.236,2.476V709.8h-2.358Z" transform="translate(-2678.36 -594.679)"/>
    <path id="Path_28853" data-name="Path 28853" d="M65.116,103.745A47.738,47.738,0,1,1,99.092,22.482a54.838,54.838,0,1,0-8.51,73.9,47.5,47.5,0,0,1-25.466,7.368" transform="translate(0 0.001)" fill="#8fc73e"/>
    <path id="Path_28854" data-name="Path 28854" d="M220.24,110.213a38.722,38.722,0,1,1-58,37.839c-.04.758-.062,1.521-.062,2.289a42.9,42.9,0,1,0,58.061-40.128" transform="translate(-138.711 -94.264)" fill="#8fc73e"/>
    <path id="Path_28855" data-name="Path 28855" d="M240.471,130.69a31.784,31.784,0,0,0-30.454,22.7,27.939,27.939,0,1,1,18.211,38.4,31.778,31.778,0,1,0,12.243-61.1" transform="translate(-179.626 -111.778)" fill="#8fc73e"/>
  </g>
</svg>
