<svg id="Group_7583" data-name="Group 7583" xmlns="http://www.w3.org/2000/svg" xmlns:xlink="http://www.w3.org/1999/xlink" width="283.236" height="58.8" viewBox="0 0 283.236 58.8">
  <defs>
    <clipPath id="clip-path">
      <rect id="Rectangle_2379" data-name="Rectangle 2379" width="283.236" height="58.8" fill="#fff"/>
    </clipPath>
  </defs>
  <g id="Group_7400" data-name="Group 7400" clip-path="url(#clip-path)">
    <path id="Path_28823" data-name="Path 28823" d="M820.641,304.987h7.34a5.328,5.328,0,0,1,3.64.955c.716.6,1.014,1.731,1.014,3.282v2.745h-4.177v-2.148a1.818,1.818,0,0,0-.358-1.313,2.348,2.348,0,0,0-1.552-.358H825v13.427h-4.356Z" transform="translate(-760.538 -282.65)" fill="#8fc73e"/>
    <path id="Path_28824" data-name="Path 28824" d="M999.9,228.716h3.1v-6.027h4.357v6.027h4.655V232h-4.655v6.684a3.906,3.906,0,0,0,.656,2.566,2.8,2.8,0,0,0,2.208.716h1.79v3.282h-4a4.652,4.652,0,0,1-3.7-1.373,5.533,5.533,0,0,1-1.313-3.879v-8.116h-3.1Z" transform="translate(-926.672 -206.38)" fill="#8fc73e"/>
    <path id="Path_28825" data-name="Path 28825" d="M1214.637,320.822H1206.4c-2.447,0-4.177-.477-5.252-1.432s-1.611-2.506-1.611-4.655v-10.5h4.357v10.145a2.874,2.874,0,0,0,.6,2.208,3.465,3.465,0,0,0,2.327.537h3.521v-12.95h4.356v16.65Z" transform="translate(-1111.687 -281.895)" fill="#8fc73e"/>
    <path id="Path_28826" data-name="Path 28826" d="M1452.436,318.116h9.25a3.353,3.353,0,0,0,1.79-.358,1.394,1.394,0,0,0,.537-1.253,1.427,1.427,0,0,0-.6-1.253,3.278,3.278,0,0,0-1.79-.418h-3.76c-2.268,0-3.76-.358-4.535-1.014s-1.194-1.91-1.194-3.64a4.971,4.971,0,0,1,1.432-3.939,6.613,6.613,0,0,1,4.417-1.253h9.429v3.461h-7.758a5.278,5.278,0,0,0-2.447.358,1.317,1.317,0,0,0-.6,1.194,1.353,1.353,0,0,0,.478,1.134,2.708,2.708,0,0,0,1.552.358h4a6.237,6.237,0,0,1,4.177,1.253,4.633,4.633,0,0,1,1.432,3.64,5.5,5.5,0,0,1-1.253,3.76,4.124,4.124,0,0,1-3.282,1.432h-11.338v-3.461Z" transform="translate(-1345.784 -282.65)" fill="#8fc73e"/>
    <path id="Path_28827" data-name="Path 28827" d="M1893,225.993h-11.756a4.511,4.511,0,0,0-2.8.716,2.679,2.679,0,0,0-.895,2.268,2.157,2.157,0,0,0,.775,1.85,3.437,3.437,0,0,0,2.268.6h6.266c2.626,0,4.476.477,5.55,1.492,1.074.955,1.671,2.626,1.671,4.893,0,2.327-.656,4.058-1.91,5.132s-3.282,1.611-5.968,1.611h-12.711v-4.058h11.935a4.867,4.867,0,0,0,2.865-.6,2.883,2.883,0,0,0,.06-4,4.147,4.147,0,0,0-2.626-.6h-5.609c-2.626,0-4.535-.537-5.729-1.552s-1.791-2.685-1.791-4.953c0-2.387.657-4.177,1.91-5.252,1.253-1.134,3.282-1.671,6.027-1.671H1893Z" transform="translate(-1735.446 -205.625)" fill="#fff"/>
    <path id="Path_28828" data-name="Path 28828" d="M2211.241,310.262a8.275,8.275,0,0,1-2.387,6.266,8.755,8.755,0,0,1-6.385,2.327,8.9,8.9,0,0,1-6.445-2.327,9.339,9.339,0,0,1,0-12.473,8.9,8.9,0,0,1,6.445-2.327,8.755,8.755,0,0,1,6.385,2.327,8.363,8.363,0,0,1,2.387,6.206m-13.009,0a5.489,5.489,0,0,0,1.134,3.7,3.773,3.773,0,0,0,3.1,1.313,3.851,3.851,0,0,0,3.1-1.313,5.385,5.385,0,0,0,1.134-3.7,5.488,5.488,0,0,0-1.134-3.7,3.771,3.771,0,0,0-3.1-1.313,3.852,3.852,0,0,0-3.1,1.313,5.489,5.489,0,0,0-1.134,3.7" transform="translate(-2032.978 -279.63)" fill="#fff"/>
    <rect id="Rectangle_2377" data-name="Rectangle 2377" width="4.595" height="22.618" transform="translate(180.83 16.309)" fill="#fff"/>
    <path id="Path_28829" data-name="Path 28829" d="M2596.655,320.822h-8.3c-2.447,0-4.177-.477-5.251-1.432s-1.612-2.506-1.612-4.655v-10.5h4.356v10.145a2.877,2.877,0,0,0,.6,2.208,3.468,3.468,0,0,0,2.327.537h3.521v-12.95h4.357Z" transform="translate(-2392.432 -281.895)" fill="#fff"/>
    <path id="Path_28830" data-name="Path 28830" d="M2819.429,228.716h3.1v-6.027h4.356v6.027h4.655V232h-4.655v6.684a3.9,3.9,0,0,0,.657,2.566,2.8,2.8,0,0,0,2.208.716h1.79v3.282h-4a4.652,4.652,0,0,1-3.7-1.373,5.536,5.536,0,0,1-1.312-3.879v-8.116h-3.1Z" transform="translate(-2612.938 -206.38)" fill="#fff"/>
    <path id="Path_28831" data-name="Path 28831" d="M3024.473,226.808h-4.595V222.69h4.595Zm0,18.5h-4.595v-16.59h4.595Z" transform="translate(-2798.706 -206.38)" fill="#fff"/>
    <path id="Path_28832" data-name="Path 28832" d="M3136.894,310.262a8.275,8.275,0,0,1-2.387,6.266,8.755,8.755,0,0,1-6.386,2.327,8.9,8.9,0,0,1-6.445-2.327,9.342,9.342,0,0,1,0-12.473,8.9,8.9,0,0,1,6.445-2.327,8.755,8.755,0,0,1,6.386,2.327,8.138,8.138,0,0,1,2.387,6.206m-13.01,0a5.492,5.492,0,0,0,1.134,3.7,3.775,3.775,0,0,0,3.1,1.313,3.852,3.852,0,0,0,3.1-1.313,5.386,5.386,0,0,0,1.134-3.7,5.489,5.489,0,0,0-1.134-3.7,3.773,3.773,0,0,0-3.1-1.313,3.853,3.853,0,0,0-3.1,1.313,5.823,5.823,0,0,0-1.134,3.7" transform="translate(-2890.836 -279.63)" fill="#fff"/>
    <path id="Path_28833" data-name="Path 28833" d="M3396.332,304.987h8.235c2.506,0,4.3.478,5.311,1.432q1.612,1.432,1.612,4.655v10.5h-4.357v-9.966c0-1.253-.178-2.029-.6-2.387a3.463,3.463,0,0,0-2.327-.537h-3.521v12.95h-4.357Z" transform="translate(-3147.589 -282.65)" fill="#fff"/>
    <path id="Path_28834" data-name="Path 28834" d="M3647.6,318.116h9.249a3.36,3.36,0,0,0,1.792-.358,1.4,1.4,0,0,0,.536-1.253,1.427,1.427,0,0,0-.6-1.253,3.279,3.279,0,0,0-1.79-.418h-3.76c-2.268,0-3.76-.358-4.536-1.014a4.759,4.759,0,0,1-1.193-3.64,4.966,4.966,0,0,1,1.433-3.939,6.609,6.609,0,0,1,4.417-1.253h9.428v3.461h-7.757a5.28,5.28,0,0,0-2.447.358,1.318,1.318,0,0,0-.6,1.194,1.351,1.351,0,0,0,.478,1.134,2.7,2.7,0,0,0,1.551.358h4a6.24,6.24,0,0,1,4.178,1.253,4.635,4.635,0,0,1,1.432,3.64,5.5,5.5,0,0,1-1.253,3.76,4.124,4.124,0,0,1-3.282,1.432H3647.54v-3.461Z" transform="translate(-3380.177 -282.65)" fill="#fff"/>
    <path id="Path_28835" data-name="Path 28835" d="M1176.271,634.18l5.192,11.876h-1.491l-1.492-3.521H1174l-1.492,3.521h-1.492Zm0,2.984-1.79,4.177h3.64Z" transform="translate(-1085.256 -587.734)" fill="#fff"/>
    <path id="Path_28836" data-name="Path 28836" d="M1388.645,639.67a3.65,3.65,0,0,1,1.671,1.253,3.541,3.541,0,0,1-.477,4.356,4.024,4.024,0,0,1-4.894.239,3.763,3.763,0,0,1-1.253-1.969l1.253-.6a2.779,2.779,0,0,0,.835,1.552,1.938,1.938,0,0,0,1.433.537,2.3,2.3,0,0,0,1.671-.6,2.069,2.069,0,0,0,.656-1.552,1.928,1.928,0,0,0-.418-1.313,3.264,3.264,0,0,0-1.313-.955l-1.373-.6a3.361,3.361,0,0,1-1.671-1.253,2.9,2.9,0,0,1-.537-1.79,2.585,2.585,0,0,1,.9-2.029,3.331,3.331,0,0,1,2.327-.776,3.6,3.6,0,0,1,1.79.418,3.206,3.206,0,0,1,1.194,1.313l-1.134.716a3.618,3.618,0,0,0-.835-1.015,1.629,1.629,0,0,0-1.074-.3,1.708,1.708,0,0,0-1.253.477,1.757,1.757,0,0,0-.12,2.268,3.421,3.421,0,0,0,1.134.776Z" transform="translate(-1282.353 -587.734)" fill="#fff"/>
    <path id="Path_28837" data-name="Path 28837" d="M1496.953,698.357a4.151,4.151,0,0,1,.3-1.492,3.84,3.84,0,0,1,2.089-2.089,3.876,3.876,0,0,1,2.984,0,3.84,3.84,0,0,1,2.089,2.089,3.877,3.877,0,0,1,0,2.984,3.841,3.841,0,0,1-2.089,2.089,3.879,3.879,0,0,1-2.984,0,3.841,3.841,0,0,1-2.089-2.089,3.184,3.184,0,0,1-.3-1.492m1.253,0a2.52,2.52,0,0,0,.776,1.909,2.392,2.392,0,0,0,1.85.776,2.269,2.269,0,0,0,1.791-.776,2.76,2.76,0,0,0,.776-1.909,2.522,2.522,0,0,0-.776-1.91,2.355,2.355,0,0,0-1.791-.776,2.481,2.481,0,0,0-1.85.776,2.873,2.873,0,0,0-.776,1.91" transform="translate(-1387.318 -643.615)" fill="#fff"/>
    <path id="Path_28838" data-name="Path 28838" d="M1615.663,641.525v-6.147h-1.373v-1.015h1.373v-2.089a4.324,4.324,0,0,1,.477-2.387,1.843,1.843,0,0,1,1.612-.6,1.648,1.648,0,0,1,.537.06,1.124,1.124,0,0,1,.478.119v1.253c-.179-.06-.3-.179-.478-.179a1.311,1.311,0,0,0-.477-.06.722.722,0,0,0-.716.358,4.632,4.632,0,0,0-.179,1.671v1.91h1.91v1.015h-1.85v6.147h-1.313Z" transform="translate(-1496.062 -583.203)" fill="#fff"/>
    <path id="Path_28839" data-name="Path 28839" d="M1677.529,663.32h-1.313V662.3h1.313V659.44h1.253V662.3h1.313v1.015h-1.313v6.147h-1.253Z" transform="translate(-1553.452 -611.144)" fill="#fff"/>
    <path id="Path_28840" data-name="Path 28840" d="M1737.176,695.293l2.149,5.132,1.91-4.834h1.373l-3.163,7.579-2.328-5.49-2.327,5.49-3.163-7.579H1733l1.91,4.834,2.148-5.132Z" transform="translate(-1604.804 -644.371)" fill="#fff"/>
    <path id="Path_28841" data-name="Path 28841" d="M1899.309,695.532v7.1h-1.193V701.38a3.5,3.5,0,0,1-1.074,1.193,2.563,2.563,0,0,1-1.492.418,3.043,3.043,0,0,1-2.447-1.074,4.716,4.716,0,0,1-.06-5.61,3,3,0,0,1,2.447-1.015,2.63,2.63,0,0,1,1.552.418,3.026,3.026,0,0,1,1.074,1.193v-1.313h1.193Zm-1.193,3.64a3.13,3.13,0,0,0-.657-1.969,2.207,2.207,0,0,0-1.73-.716,2.387,2.387,0,0,0-1.731.657,2.719,2.719,0,0,0-.6,1.909,2.783,2.783,0,0,0,.6,1.969,2.207,2.207,0,0,0,1.731.716,2.387,2.387,0,0,0,1.73-.657,2.74,2.74,0,0,0,.657-1.91" transform="translate(-1753.57 -644.371)" fill="#fff"/>
    <path id="Path_28842" data-name="Path 28842" d="M2023.336,703.447v-7.1h1.074v1.492a3.453,3.453,0,0,1,1.014-1.313,2.491,2.491,0,0,1,1.373-.418,1.017,1.017,0,0,1,.418.06c.119.06.3.06.418.119l-.418,1.074c-.12-.06-.3-.06-.418-.119-.119,0-.239-.06-.358-.06a1.563,1.563,0,0,0-1.432.716,4,4,0,0,0-.477,2.089v3.461Z" transform="translate(-1875.15 -645.125)" fill="#fff"/>
    <path id="Path_28843" data-name="Path 28843" d="M2098.7,698.537h-5.669v.119a2.688,2.688,0,0,0,.657,1.85,2.206,2.206,0,0,0,1.73.716,2.553,2.553,0,0,0,1.313-.358,3.438,3.438,0,0,0,1.015-1.194l.954.6a3.533,3.533,0,0,1-1.372,1.432,3.374,3.374,0,0,1-1.91.477,3.419,3.419,0,0,1-2.625-1.074,4.038,4.038,0,0,1-1.015-2.8,3.888,3.888,0,0,1,1.015-2.745,3.289,3.289,0,0,1,2.566-1.074,3.235,3.235,0,0,1,2.507,1.015,4,4,0,0,1,.9,2.745v.3Zm-1.312-1.014a1.918,1.918,0,0,0-.657-1.432,2.131,2.131,0,0,0-1.552-.537,2.179,2.179,0,0,0-1.491.537,2.026,2.026,0,0,0-.657,1.432Z" transform="translate(-1938.583 -643.616)" fill="#fff"/>
    <path id="Path_28844" data-name="Path 28844" d="M2277.564,651.342V639.884h2.686a10.134,10.134,0,0,1,1.671.119,2.737,2.737,0,0,1,.955.418,2.107,2.107,0,0,1,.777,1.074,3.91,3.91,0,0,1,.3,1.492,2.714,2.714,0,0,1-.776,2.148,3.335,3.335,0,0,1-2.268.716h-.239l4.356,5.431h-1.731l-4.177-5.431h-.179v5.431h-1.373Zm1.313-10.265V644.9h1.015a3.623,3.623,0,0,0,2.148-.418,1.762,1.762,0,0,0,.537-1.432,1.953,1.953,0,0,0-.537-1.552,3.522,3.522,0,0,0-2.089-.418Z" transform="translate(-2110.759 -593.02)" fill="#fff"/>
    <path id="Path_28845" data-name="Path 28845" d="M2392.046,698.537h-5.67v.119a2.69,2.69,0,0,0,.657,1.85,2.207,2.207,0,0,0,1.73.716,2.555,2.555,0,0,0,1.313-.358,3.438,3.438,0,0,0,1.015-1.194l.955.6a3.54,3.54,0,0,1-1.373,1.432,3.375,3.375,0,0,1-1.91.477,3.42,3.42,0,0,1-2.626-1.074,4.039,4.039,0,0,1-1.014-2.8,3.889,3.889,0,0,1,1.014-2.745,3.291,3.291,0,0,1,2.566-1.074,3.236,3.236,0,0,1,2.507,1.015,4,4,0,0,1,.895,2.745v.3Zm-1.313-1.014a1.917,1.917,0,0,0-.656-1.432,2.131,2.131,0,0,0-1.551-.537,2.181,2.181,0,0,0-1.492.537,2.027,2.027,0,0,0-.657,1.432Z" transform="translate(-2210.439 -643.616)" fill="#fff"/>
    <path id="Path_28846" data-name="Path 28846" d="M2492.127,706.131l-3.521-7.579h1.372l2.148,4.953,2.149-4.953h1.372Z" transform="translate(-2306.345 -647.391)" fill="#fff"/>
    <path id="Path_28847" data-name="Path 28847" d="M2594.535,698.357a4.156,4.156,0,0,1,.3-1.492,3.842,3.842,0,0,1,2.089-2.089,3.877,3.877,0,0,1,2.984,0,3.843,3.843,0,0,1,2.089,2.089,3.883,3.883,0,0,1,0,2.984,3.844,3.844,0,0,1-2.089,2.089,3.88,3.88,0,0,1-2.984,0,3.843,3.843,0,0,1-2.089-2.089,3.176,3.176,0,0,1-.3-1.492m1.313,0a2.521,2.521,0,0,0,.775,1.909,2.393,2.393,0,0,0,1.85.776,2.268,2.268,0,0,0,1.79-.776,2.759,2.759,0,0,0,.776-1.909,2.518,2.518,0,0,0-.776-1.91,2.268,2.268,0,0,0-1.79-.776,2.483,2.483,0,0,0-1.85.776,2.613,2.613,0,0,0-.775,1.91" transform="translate(-2404.514 -643.615)" fill="#fff"/>
    <rect id="Rectangle_2378" data-name="Rectangle 2378" width="1.253" height="12.055" transform="translate(199.748 46.267)" fill="#fff"/>
    <path id="Path_28848" data-name="Path 28848" d="M2779.127,698.552v3.521a3.8,3.8,0,0,0,.477,2.148,2.316,2.316,0,0,0,3.1,0,3.881,3.881,0,0,0,.417-2.148v-3.521h1.253v4.177a2.932,2.932,0,0,1-3.282,3.282,3.217,3.217,0,0,1-2.387-.835,3.369,3.369,0,0,1-.835-2.447v-4.177Z" transform="translate(-2574.426 -647.391)" fill="#fff"/>
    <path id="Path_28849" data-name="Path 28849" d="M2884.3,663.32h-1.313V662.3h1.313V659.44h1.253V662.3h1.313v1.015h-1.313v6.147H2884.3Z" transform="translate(-2671.84 -611.144)" fill="#fff"/>
    <path id="Path_28850" data-name="Path 28850" d="M2951.432,639.964a.9.9,0,0,1,.238-.656.816.816,0,0,1,.657-.239.826.826,0,0,1,.9.9.692.692,0,0,1-.239.6.814.814,0,0,1-.656.239.9.9,0,0,1-.657-.239.8.8,0,0,1-.238-.6m.3,3.521h1.253v7.1h-1.253Z" transform="translate(-2735.273 -592.264)" fill="#fff"/>
    <path id="Path_28851" data-name="Path 28851" d="M2999.508,698.357a4.161,4.161,0,0,1,.3-1.492,3.837,3.837,0,0,1,2.089-2.089,3.877,3.877,0,0,1,2.984,0,3.836,3.836,0,0,1,2.088,2.089,3.88,3.88,0,0,1,0,2.984,3.837,3.837,0,0,1-2.088,2.089,3.88,3.88,0,0,1-2.984,0,3.838,3.838,0,0,1-2.089-2.089,4.162,4.162,0,0,1-.3-1.492m1.312,0a2.522,2.522,0,0,0,.776,1.909,2.393,2.393,0,0,0,1.85.776,2.269,2.269,0,0,0,1.791-.776,2.76,2.76,0,0,0,.776-1.909,2.52,2.52,0,0,0-.776-1.91,2.269,2.269,0,0,0-1.791-.776,2.483,2.483,0,0,0-1.85.776,2.615,2.615,0,0,0-.776,1.91" transform="translate(-2779.828 -643.615)" fill="#fff"/>
    <path id="Path_28852" data-name="Path 28852" d="M3131.509,702.692v-7.1h1.194v1.074a2.654,2.654,0,0,1,1.134-1.015,3.066,3.066,0,0,1,1.492-.358,2.9,2.9,0,0,1,1.969.656,2.384,2.384,0,0,1,.717,1.85v4.834h-1.254v-4.178a2.467,2.467,0,0,0-.477-1.611,1.762,1.762,0,0,0-1.432-.537,2.791,2.791,0,0,0-1.015.179,1.63,1.63,0,0,0-.716.537,1.323,1.323,0,0,0-.3.656,5.411,5.411,0,0,0-.119,1.253v3.7h-1.194Z" transform="translate(-2902.162 -644.37)" fill="#fff"/>
    <path id="Path_28853" data-name="Path 28853" d="M32.956,52.507a24.161,24.161,0,1,1,17.2-41.129,27.754,27.754,0,1,0-4.307,37.4,24.039,24.039,0,0,1-12.889,3.729" transform="translate(0 0.001)" fill="#8fc73e"/>
    <path id="Path_28854" data-name="Path 28854" d="M191.565,110.213a19.6,19.6,0,1,1-29.354,19.151c-.02.384-.031.77-.031,1.159a21.71,21.71,0,1,0,29.386-20.309" transform="translate(-150.301 -102.141)" fill="#8fc73e"/>
    <path id="Path_28855" data-name="Path 28855" d="M225.43,130.69a16.086,16.086,0,0,0-15.413,11.491,14.14,14.14,0,1,1,9.217,19.435,16.083,16.083,0,1,0,6.2-30.925" transform="translate(-194.636 -121.118)" fill="#8fc73e"/>
  </g>
</svg>
