<?xml version="1.0" encoding="utf-8"?>
<!-- Generator: Adobe Illustrator 26.5.0, SVG Export Plug-In . SVG Version: 6.00 Build 0)  -->
<svg version="1.1" id="Layer_1" xmlns="http://www.w3.org/2000/svg" xmlns:xlink="http://www.w3.org/1999/xlink" x="0px" y="0px"
	 viewBox="0 0 224 34" style="enable-background:new 0 0 224 34;" xml:space="preserve">
<style type="text/css">
	.st0{enable-background:new    ;}
	.st1{fill:#A7A7A7;}
            
</style>
<g class="st0">
	<path class="st1" d="M10.1,9.2c1.9,0,3.5,0.3,4.9,1c1.7,0.8,2.8,2,3.5,3.8c0.5,1.4,0.8,3.1,0.8,4.9s-0.3,3.5-1,4.9
		c-0.8,1.7-2,2.8-3.7,3.5c-1.2,0.5-2.7,0.7-4.3,0.7c-2.1,0-3.9-0.4-5.5-1.2c-1.3-0.7-2.3-1.7-3-3.1c-0.7-1.4-1-3.1-1-5.1
		c0-3.6,0.9-6.1,2.7-7.6C5,9.9,7.2,9.2,10.1,9.2z M10.1,12.4c-1.8,0-3.1,0.6-3.9,1.8c-0.6,0.9-0.9,2.4-0.9,4.5
		c0,2.2,0.4,3.8,1.2,4.8c0.8,1,2,1.5,3.7,1.5c1.6,0,2.9-0.5,3.6-1.5s1.2-2.6,1.2-4.8c0-2-0.3-3.4-0.9-4.5C13.3,13,12,12.4,10.1,12.4
		z"/>
	<path class="st1" d="M22.1,14.4h5.6c1.1,0,2,0.1,2.6,0.2c0.6,0.2,1.1,0.4,1.6,0.8c0.4,0.4,0.7,0.8,0.9,1.4s0.2,1.4,0.2,2.4v1.3
		h-3.6v-0.7c0-1-0.2-1.6-0.5-2s-1-0.5-1.9-0.5h-1.1V28h-3.7V14.4z"/>
	<path class="st1" d="M36.6,14.4v-5h3.7v5h3.5v2.9h-3.5v4.9c0,1.2,0.1,1.9,0.3,2.2c0.3,0.4,0.9,0.7,1.7,0.7h1.5V28h-2.7
		c-1.6,0-2.8-0.4-3.5-1.2c-0.7-0.8-1-2.1-1-3.9v-5.6h-2.4v-2.9H36.6z"/>
	<path class="st1" d="M55.3,25.1V14.4h3.7V28h-7.4c-1.1,0-1.9-0.1-2.5-0.2s-1.1-0.4-1.5-0.9c-1-0.9-1.4-2.3-1.4-4.2v-8.4H50v8.8
		c0,0.6,0.2,1.1,0.5,1.4c0.3,0.3,0.8,0.5,1.3,0.5H55.3z"/>
	<path class="st1" d="M74.6,14.4v2.9h-6.6c-0.8,0-1.2,0-1.4,0.1c-0.4,0.1-0.6,0.5-0.6,1.1c0,0.5,0.2,0.9,0.6,1.1
		c0.2,0.1,0.8,0.2,1.8,0.2h2.2c1.4,0,2.5,0.3,3.3,0.9c0.9,0.7,1.4,1.7,1.4,3c0,1-0.3,1.9-0.8,2.7c-0.4,0.6-0.9,1.1-1.5,1.3
		c-0.6,0.2-1.6,0.3-2.9,0.3h-7.8v-2.9h6.7c0.8,0,1.4,0,1.7,0c0.7-0.1,1-0.4,1-1.1c0-0.6-0.2-1-0.7-1.2c-0.2-0.1-0.8-0.2-1.6-0.2H67
		c-0.9,0-1.6-0.1-2-0.2s-0.9-0.3-1.3-0.6c-0.5-0.4-0.9-0.9-1.2-1.5c-0.3-0.6-0.4-1.3-0.4-2c0-1.4,0.5-2.5,1.5-3.3
		c0.6-0.5,1.6-0.7,3.1-0.7H74.6z"/>
	<path class="st1" d="M85.2,28V9.3h10.6c1.6,0,2.9,0.2,3.6,0.6c0.9,0.4,1.5,1.2,2,2.2c0.3,0.7,0.5,1.4,0.5,2.2c0,1-0.3,1.9-0.8,2.7
		c-0.5,0.8-1.2,1.4-1.9,1.7c1.8,0.8,2.7,2.3,2.7,4.4c0,1.2-0.3,2.2-0.9,3.1c-0.5,0.7-1.1,1.2-1.9,1.5c-0.8,0.3-2,0.4-3.5,0.4H85.2z
		 M89.2,17h5.4c0.6,0,1,0,1.2-0.1s0.5-0.2,0.7-0.4c0.6-0.4,0.9-1.1,0.9-1.8c0-0.8-0.3-1.3-0.8-1.7c-0.4-0.3-1-0.4-2-0.4h-5.5V17z
		 M89.2,24.7h5.4c0.6,0,1,0,1.2-0.1c0.3-0.1,0.5-0.2,0.7-0.4c0.6-0.4,0.9-1.1,0.9-1.8c0-0.8-0.3-1.3-0.8-1.7c-0.4-0.3-1-0.4-2-0.4
		h-5.5V24.7z"/>
	<path class="st1" d="M104.7,14.4h5.6c1.1,0,2,0.1,2.6,0.2c0.6,0.2,1.1,0.4,1.6,0.8c0.4,0.4,0.7,0.8,0.9,1.4s0.2,1.4,0.2,2.4v1.3
		h-3.6v-0.7c0-1-0.2-1.6-0.5-2s-1-0.5-1.9-0.5h-1.1V28h-3.7V14.4z"/>
	<path class="st1" d="M126.8,19.7c0-1-0.2-1.6-0.6-1.9s-1.1-0.5-2.3-0.5h-6.3v-2.9h6.3c1.1,0,1.9,0,2.3,0.1s0.9,0.1,1.3,0.3
		c2.1,0.8,3.1,2.7,3,5.6V28h-7.9c-1.4,0-2.4,0-2.9-0.1s-1-0.3-1.4-0.5c-1.1-0.7-1.7-1.9-1.7-3.4c0-0.9,0.2-1.7,0.7-2.5
		s1-1.2,1.7-1.5c0.6-0.2,1.7-0.3,3.2-0.3H126.8z M126.8,22.6h-4.3l-0.6,0c-0.4,0-0.8,0.1-1,0.3s-0.4,0.5-0.4,0.9
		c0,0.4,0.2,0.8,0.5,0.9s0.8,0.3,1.6,0.3h4.3V22.6z"/>
	<path class="st1" d="M134.1,14.4h7.2c1.1,0,1.9,0.1,2.5,0.2s1.1,0.4,1.5,0.9c1,0.9,1.4,2.2,1.4,4.1V28H143v-8.8
		c0-0.7-0.2-1.2-0.5-1.5s-0.8-0.4-1.5-0.4h-3.3V28h-3.7V14.4z"/>
	<path class="st1" d="M159.4,14.4v-5h3.7V28h-6.5c-1.3,0-2.3-0.1-3-0.3c-1.6-0.5-2.8-1.5-3.6-3c-0.5-1-0.8-2.2-0.8-3.6
		c0-2.3,0.8-4.2,2.4-5.5c1-0.8,2.4-1.3,4.2-1.3H159.4z M159.4,25.1v-7.8h-2.7c-1.2,0-2.1,0.4-2.7,1.2c-0.5,0.7-0.8,1.6-0.8,2.6
		c0,1.5,0.4,2.6,1.3,3.3c0.6,0.5,1.3,0.7,2.2,0.7H159.4z"/>
	<path class="st1" d="M173.9,28v-3.3h8.5c1.4,0,2.3-0.1,2.7-0.4c0.7-0.4,1-1,1-1.8c0-0.9-0.4-1.6-1.1-2c-0.4-0.2-1.1-0.4-2.1-0.4
		h-3.5c-2.1,0-3.6-0.4-4.6-1.1c-0.6-0.5-1-1.1-1.4-1.8s-0.5-1.5-0.5-2.3c0-1.3,0.4-2.5,1.1-3.6c0.7-1,1.9-1.7,3.6-1.8
		c0.6-0.1,1.4-0.1,2.5-0.1h9.3v3.3h-8.4c-1.2,0-2.1,0.1-2.5,0.2c-0.8,0.2-1.3,0.8-1.3,1.9c0,0.9,0.4,1.5,1.1,1.8
		c0.5,0.2,1.3,0.3,2.4,0.3h3c1.5,0,2.7,0.1,3.4,0.4c1.3,0.4,2.2,1.2,2.7,2.4c0.4,0.9,0.6,1.9,0.6,2.9c0,1.1-0.3,2.1-0.8,3
		c-0.7,1.3-1.8,2-3.3,2.3c-0.7,0.1-1.8,0.2-3.2,0.2H173.9z"/>
	<path class="st1" d="M193.3,13V9.3h3.7V13H193.3z M193.3,14.4h3.7V28h-3.7V14.4z"/>
	<path class="st1" d="M201.8,14.4v-5h3.7v5h3.5v2.9h-3.5v4.9c0,1.2,0.1,1.9,0.3,2.2c0.3,0.4,0.9,0.7,1.7,0.7h1.5V28h-2.7
		c-1.6,0-2.8-0.4-3.5-1.2s-1-2.1-1-3.9v-5.6h-2.4v-2.9H201.8z"/>
	<path class="st1" d="M222.4,19.7v2.9h-7.9c0.1,0.9,0.4,1.5,0.9,1.9s1.3,0.6,2.5,0.6h4.6V28h-5c-1.1,0-2-0.1-2.6-0.3s-1.3-0.5-1.9-1
		c-1.7-1.3-2.5-3.2-2.5-5.7c0-1.7,0.4-3.1,1.3-4.3c0.6-0.8,1.3-1.4,2.2-1.8c0.8-0.4,1.9-0.5,3.3-0.5h5.3v2.9h-5
		c-1,0-1.7,0.2-2.2,0.5s-0.7,1-0.8,1.9H222.4z"/>
</g>
</svg>
